<svg id="logo" xmlns="http://www.w3.org/2000/svg" xmlns:xlink="http://www.w3.org/1999/xlink" width="400" height="400" viewBox="0, 0, 400,400">
    <g id="logo">
        <path id="path0" d="M168.667 110.512 C 142.607 111.132,122.777 114.660,97.667 123.143 C 74.056 131.120,53.661 140.552,14.083 161.798 C 1.036 168.803,2.532 167.900,2.406 168.839 C 2.352 169.248,2.283 169.733,2.253 169.917 C 2.224 170.100,2.151 170.625,2.092 171.083 C 2.033 171.542,1.949 172.104,1.905 172.333 C 1.160 176.263,1.013 178.667,1.517 178.665 C 1.737 178.664,4.054 178.513,6.667 178.330 C 15.242 177.730,20.282 177.435,35.083 176.670 C 38.113 176.514,51.113 176.034,62.083 175.673 C 78.622 175.130,120.795 175.028,136.833 175.492 C 154.621 176.006,166.668 176.408,172.000 176.665 C 179.250 177.014,182.599 177.176,187.667 177.419 C 190.554 177.558,194.717 177.782,196.917 177.918 C 199.117 178.053,203.467 178.315,206.583 178.499 C 243.099 180.657,291.759 185.087,335.500 190.237 C 346.793 191.566,349.209 191.855,351.667 192.168 C 353.087 192.350,357.250 192.871,360.917 193.327 C 373.577 194.902,395.225 197.738,399.625 198.398 C 399.993 198.453,400.000 198.422,400.000 196.769 C 399.999 193.977,399.789 188.865,399.667 188.668 C 399.543 188.466,398.325 188.266,392.667 187.516 C 390.604 187.243,386.892 186.751,384.417 186.422 C 345.664 181.271,303.350 176.483,270.917 173.580 C 268.350 173.350,265.125 173.053,263.750 172.920 C 262.375 172.786,259.337 172.523,257.000 172.334 C 254.662 172.145,251.512 171.879,250.000 171.744 C 248.487 171.608,244.325 171.274,240.750 171.001 C 237.175 170.729,233.313 170.431,232.167 170.339 C 231.021 170.247,227.346 169.984,224.000 169.755 C 220.654 169.527,216.829 169.263,215.500 169.170 C 214.171 169.077,209.933 168.812,206.083 168.582 C 202.233 168.351,197.883 168.089,196.417 167.998 C 193.935 167.844,181.119 167.207,173.083 166.838 C 138.948 165.270,91.621 164.845,61.083 165.834 C 43.156 166.415,37.228 166.651,29.439 167.095 C 26.977 167.236,24.934 167.323,24.900 167.289 C 24.835 167.224,32.636 163.061,39.667 159.408 C 88.375 134.099,124.408 122.471,159.750 120.654 C 165.274 120.371,189.195 120.260,195.914 120.487 C 227.241 121.547,257.446 124.777,294.333 131.012 C 310.203 133.695,329.759 137.453,347.583 141.245 C 349.142 141.576,351.279 142.028,352.333 142.248 C 353.387 142.469,355.825 142.993,357.750 143.414 C 359.675 143.835,362.262 144.398,363.500 144.666 C 367.780 145.591,383.552 149.123,389.917 150.581 C 391.750 151.001,393.453 151.389,393.701 151.442 C 394.210 151.551,394.214 151.423,393.755 149.750 C 393.629 149.292,393.331 148.204,393.093 147.333 C 392.855 146.462,392.612 145.637,392.554 145.500 C 392.495 145.362,392.462 145.186,392.479 145.107 C 392.497 145.029,392.425 144.860,392.319 144.732 C 392.213 144.605,392.167 144.500,392.217 144.500 C 392.267 144.500,392.127 143.919,391.906 143.208 C 391.686 142.498,391.504 141.785,391.503 141.625 C 391.501 141.465,391.427 141.333,391.339 141.333 C 391.250 141.333,391.217 141.231,391.265 141.105 C 391.406 140.736,392.921 141.110,375.667 137.252 C 367.157 135.350,365.336 134.950,357.000 133.153 C 347.617 131.131,336.795 128.880,330.250 127.588 C 328.600 127.263,325.938 126.737,324.333 126.420 C 310.302 123.647,291.572 120.381,278.333 118.400 C 237.360 112.269,201.920 109.720,168.667 110.512 M3.413 236.875 C 3.450 236.990,3.517 237.346,3.561 237.667 C 3.806 239.468,3.892 239.933,4.006 240.083 C 4.075 240.175,4.169 240.512,4.214 240.833 C 4.259 241.154,4.423 241.942,4.578 242.583 C 4.733 243.225,4.890 243.900,4.928 244.083 C 5.156 245.184,5.471 246.360,5.562 246.451 C 5.973 246.862,394.117 246.887,394.612 246.476 C 394.732 246.377,394.790 246.231,394.741 246.152 C 394.692 246.072,394.738 245.688,394.843 245.296 C 394.949 244.905,395.058 244.472,395.087 244.334 C 395.116 244.196,395.301 243.408,395.498 242.583 C 395.695 241.758,395.882 240.933,395.914 240.750 C 395.946 240.567,395.984 240.417,395.999 240.417 C 396.036 240.417,396.121 240.030,396.250 239.271 C 396.311 238.915,396.394 238.465,396.435 238.271 C 396.476 238.076,396.551 237.635,396.603 237.292 L 396.696 236.667 200.020 236.667 C 42.753 236.667,3.358 236.708,3.413 236.875 M17.919 282.792 C 17.949 282.952,17.989 283.121,18.007 283.167 C 18.025 283.212,18.031 283.306,18.020 283.375 C 18.009 283.444,18.061 283.500,18.136 283.500 C 18.211 283.500,18.441 283.931,18.647 284.458 C 18.854 284.985,19.092 285.529,19.176 285.667 C 19.260 285.804,19.441 286.179,19.579 286.500 C 19.717 286.821,19.904 287.196,19.995 287.333 C 20.085 287.471,20.715 288.671,21.393 290.000 L 22.627 292.417 200.022 292.417 L 377.417 292.417 379.688 287.875 C 380.937 285.377,381.922 283.333,381.877 283.333 C 381.832 283.333,381.918 283.146,382.068 282.917 L 382.341 282.500 200.102 282.500 C 26.631 282.500,17.866 282.514,17.919 282.792 " stroke="none" fill="#fcfbfb" fill-rule="evenodd"></path>
        <path id="path1" d="M192.250 0.118 C 184.838 0.362,171.188 1.799,165.667 2.917 C 164.979 3.056,163.404 3.354,162.167 3.579 C 156.589 4.595,150.062 6.159,143.750 7.993 C 140.733 8.870,135.292 10.644,132.333 11.715 C 128.448 13.122,127.740 13.389,127.583 13.502 C 127.492 13.569,127.117 13.717,126.750 13.831 C 126.383 13.946,125.596 14.247,125.000 14.501 C 124.404 14.755,122.979 15.355,121.833 15.834 C 115.816 18.350,104.797 23.812,100.750 26.285 C 99.852 26.834,94.870 29.804,94.276 30.145 C 93.228 30.746,85.688 35.799,83.833 37.143 C 83.421 37.442,82.933 37.794,82.750 37.926 C 82.047 38.431,79.905 40.018,79.663 40.213 C 79.524 40.325,79.112 40.638,78.747 40.908 C 78.382 41.178,78.046 41.441,78.000 41.491 C 77.954 41.542,77.317 42.028,76.583 42.572 C 75.850 43.117,75.175 43.642,75.083 43.739 C 74.992 43.837,74.354 44.366,73.667 44.915 C 72.167 46.113,72.427 45.890,68.083 49.685 C 61.405 55.519,55.519 61.405,49.685 68.083 C 45.890 72.427,46.113 72.167,44.915 73.667 C 44.366 74.354,43.837 74.992,43.739 75.083 C 43.642 75.175,43.117 75.850,42.572 76.583 C 42.028 77.317,41.542 77.954,41.491 78.000 C 41.441 78.046,41.178 78.382,40.908 78.747 C 40.638 79.112,40.325 79.524,40.213 79.663 C 40.100 79.803,39.596 80.479,39.092 81.167 C 38.588 81.854,38.097 82.509,38.001 82.621 C 37.905 82.734,37.604 83.147,37.332 83.538 C 37.059 83.930,36.494 84.737,36.075 85.333 C 34.962 86.916,30.594 93.499,30.268 94.083 C 30.115 94.358,29.658 95.108,29.252 95.750 C 28.846 96.392,28.322 97.254,28.087 97.667 C 27.852 98.079,27.330 98.979,26.927 99.667 C 26.120 101.042,24.278 104.371,22.961 106.833 C 22.034 108.568,18.833 114.956,18.833 115.074 C 18.833 115.114,18.471 115.920,18.028 116.865 C 16.990 119.078,16.872 119.346,15.833 121.833 C 15.355 122.979,14.755 124.404,14.500 125.000 C 14.246 125.596,13.983 126.271,13.917 126.500 C 13.850 126.729,13.694 127.142,13.569 127.417 C 12.927 128.828,10.089 136.830,9.255 139.583 C 6.336 149.210,5.102 154.131,3.487 162.583 C 2.657 166.927,2.519 167.734,2.590 167.810 C 2.652 167.874,4.291 167.010,9.750 164.035 C 50.288 141.938,76.059 130.042,100.750 122.029 C 119.317 116.003,138.478 112.061,154.333 111.005 C 166.096 110.221,188.232 110.150,204.750 110.842 C 210.932 111.102,223.682 111.928,229.000 112.414 C 237.772 113.216,241.078 113.528,242.333 113.673 C 243.112 113.763,245.480 114.023,247.595 114.252 C 249.710 114.481,251.997 114.741,252.678 114.830 C 253.359 114.919,255.192 115.144,256.750 115.331 C 268.529 116.738,289.529 119.943,304.167 122.568 C 311.295 123.846,312.987 124.154,314.667 124.478 C 315.629 124.664,317.842 125.088,319.583 125.420 C 324.806 126.416,330.317 127.493,332.000 127.847 C 332.871 128.030,337.033 128.888,341.250 129.755 C 345.467 130.621,350.117 131.585,351.583 131.897 C 358.063 133.274,368.320 135.511,373.083 136.585 C 374.550 136.915,376.912 137.441,378.333 137.753 C 379.754 138.064,382.417 138.662,384.250 139.081 C 389.664 140.318,390.835 140.554,390.957 140.432 C 391.123 140.265,387.345 129.259,386.431 127.250 C 386.306 126.975,386.148 126.563,386.081 126.333 C 385.950 125.890,385.148 123.959,383.795 120.833 C 383.338 119.779,382.777 118.467,382.548 117.917 C 381.862 116.270,378.117 108.676,376.563 105.783 C 374.916 102.714,373.936 100.996,371.770 97.375 C 370.934 95.977,370.104 94.590,369.926 94.292 C 369.314 93.267,364.150 85.512,363.240 84.250 C 360.579 80.560,358.243 77.502,355.040 73.514 C 354.037 72.264,349.591 67.056,349.184 66.654 C 348.945 66.418,348.115 65.518,347.338 64.654 C 345.438 62.541,337.517 54.619,335.311 52.625 C 334.336 51.744,333.353 50.849,333.128 50.636 C 332.471 50.017,331.891 49.516,329.417 47.431 C 323.546 42.483,318.468 38.611,312.889 34.828 C 312.691 34.693,311.870 34.133,311.066 33.583 C 310.262 33.033,309.478 32.508,309.324 32.417 C 309.170 32.325,308.865 32.130,308.647 31.983 C 307.187 31.002,304.057 29.054,303.667 28.884 C 303.529 28.824,303.379 28.724,303.333 28.662 C 303.287 28.601,302.912 28.361,302.500 28.129 C 301.012 27.292,297.578 25.323,297.333 25.166 C 297.196 25.078,296.671 24.799,296.167 24.547 C 295.662 24.294,295.212 24.040,295.167 23.983 C 295.121 23.925,294.783 23.729,294.417 23.547 C 294.050 23.366,292.400 22.525,290.750 21.679 C 289.100 20.833,286.362 19.499,284.667 18.716 C 282.971 17.933,281.118 17.076,280.549 16.812 C 279.980 16.549,279.475 16.333,279.429 16.333 C 279.382 16.333,278.947 16.152,278.463 15.931 C 277.979 15.710,277.171 15.364,276.667 15.163 C 273.605 13.939,272.268 13.416,271.083 12.978 C 270.350 12.707,269.525 12.383,269.250 12.258 C 268.452 11.896,259.453 8.903,257.167 8.240 C 244.467 4.555,231.422 2.017,220.000 1.011 C 217.846 0.821,215.333 0.590,214.417 0.498 C 210.371 0.093,198.969 -0.103,192.250 0.118 M167.667 120.501 C 154.802 120.882,148.949 121.369,139.667 122.831 C 119.615 125.988,98.469 132.441,75.083 142.539 C 66.445 146.269,60.289 149.153,49.834 154.367 C 39.349 159.596,25.237 166.959,25.395 167.117 C 25.457 167.179,39.032 166.595,41.750 166.414 C 49.893 165.871,84.018 165.167,102.224 165.167 C 120.298 165.167,155.921 165.876,164.917 166.415 C 165.742 166.464,169.192 166.616,172.583 166.753 C 180.242 167.061,188.923 167.469,190.250 167.583 C 190.800 167.630,194.137 167.821,197.667 168.007 C 201.196 168.193,205.733 168.455,207.750 168.589 C 209.767 168.723,214.342 169.021,217.917 169.252 C 221.492 169.482,225.354 169.746,226.500 169.838 C 227.646 169.930,231.171 170.191,234.333 170.418 C 237.496 170.644,241.358 170.944,242.917 171.083 C 244.475 171.223,248.188 171.523,251.167 171.750 C 254.146 171.978,256.808 172.201,257.083 172.245 C 257.358 172.289,259.908 172.517,262.750 172.752 C 265.592 172.988,268.967 173.286,270.250 173.417 C 271.533 173.547,273.933 173.771,275.583 173.916 C 281.652 174.447,300.223 176.322,311.833 177.577 C 323.416 178.829,326.458 179.167,327.583 179.326 C 328.225 179.417,329.875 179.608,331.250 179.749 C 332.625 179.891,335.250 180.191,337.083 180.417 C 338.917 180.642,342.029 181.017,344.000 181.249 C 352.078 182.204,354.719 182.525,361.083 183.331 C 374.770 185.064,378.352 185.527,388.667 186.903 C 398.494 188.213,399.690 188.365,399.730 188.309 C 400.089 187.805,398.031 170.043,397.000 164.750 C 396.821 163.833,396.488 162.108,396.259 160.917 C 395.560 157.275,394.290 151.700,394.137 151.600 C 394.107 151.581,392.996 151.331,391.667 151.044 C 390.337 150.758,386.887 149.988,384.000 149.334 C 376.726 147.686,373.996 147.072,371.000 146.411 C 369.579 146.097,367.217 145.575,365.750 145.250 C 362.455 144.521,358.400 143.640,355.000 142.916 C 353.579 142.613,351.142 142.092,349.583 141.758 C 344.178 140.601,330.868 137.864,326.750 137.064 C 325.100 136.743,322.400 136.218,320.750 135.897 C 310.136 133.832,296.452 131.388,288.167 130.077 C 286.746 129.852,284.683 129.517,283.583 129.334 C 282.483 129.150,280.346 128.811,278.833 128.580 C 249.886 124.163,223.986 121.613,198.417 120.661 C 192.182 120.428,173.407 120.331,167.667 120.501 M84.583 175.334 C 60.054 175.628,38.397 176.424,14.333 177.915 C 4.697 178.513,1.422 178.759,1.188 178.903 C 1.115 178.948,0.963 180.207,0.851 181.701 C 0.738 183.195,0.577 184.942,0.494 185.583 C -0.016 189.482,-0.120 206.266,0.328 212.333 C 0.966 220.986,2.043 230.161,2.930 234.500 C 3.070 235.188,3.220 235.919,3.262 236.125 L 3.340 236.500 200.087 236.500 L 396.833 236.500 396.833 236.108 C 396.833 235.893,396.906 235.499,396.995 235.233 C 397.409 233.993,398.721 224.118,399.262 218.167 C 399.770 212.567,399.818 211.639,399.934 205.064 L 400.050 198.545 399.317 198.435 C 397.891 198.222,386.920 196.760,377.333 195.506 C 369.842 194.527,363.542 193.727,358.833 193.159 C 356.587 192.888,354.563 192.630,354.333 192.585 C 354.104 192.541,351.967 192.274,349.583 191.993 C 347.200 191.711,342.738 191.182,339.667 190.816 C 331.167 189.804,318.542 188.377,311.000 187.577 C 308.846 187.348,306.071 187.048,304.833 186.911 C 298.577 186.215,282.034 184.578,273.750 183.835 C 270.725 183.564,267.950 183.302,267.583 183.253 C 266.728 183.138,255.307 182.159,246.083 181.409 C 236.833 180.657,224.752 179.768,216.750 179.251 C 213.267 179.025,208.767 178.728,206.750 178.590 C 204.733 178.451,200.233 178.187,196.750 178.003 C 193.267 177.819,188.429 177.555,186.000 177.416 C 181.873 177.182,174.402 176.860,159.000 176.255 C 138.753 175.459,106.945 175.065,84.583 175.334 M5.503 246.770 C 5.517 247.448,7.981 256.550,9.085 260.000 C 10.066 263.066,12.040 268.802,12.326 269.417 C 12.411 269.600,12.669 270.275,12.898 270.917 C 13.264 271.941,14.023 273.899,15.001 276.337 C 15.167 276.752,15.497 277.516,15.735 278.035 C 15.972 278.554,16.167 279.019,16.167 279.069 C 16.167 279.119,16.432 279.726,16.756 280.419 C 17.081 281.112,17.412 281.851,17.492 282.062 L 17.638 282.446 200.026 282.388 L 382.415 282.329 382.802 281.540 C 383.015 281.105,383.384 280.262,383.621 279.667 C 383.858 279.071,384.106 278.508,384.172 278.417 C 384.284 278.261,386.259 273.355,387.258 270.750 C 388.282 268.082,390.083 262.814,391.133 259.417 C 392.621 254.604,393.022 253.168,394.085 248.854 L 394.634 246.625 380.192 246.747 C 360.461 246.913,111.455 246.920,52.875 246.757 C 25.699 246.681,5.501 246.686,5.503 246.770 M23.797 294.875 C 24.491 296.181,25.121 297.275,25.196 297.306 C 25.272 297.336,25.333 297.427,25.333 297.507 C 25.333 297.588,25.866 298.575,26.517 299.702 C 27.168 300.828,27.891 302.087,28.125 302.500 C 28.359 302.912,28.595 303.287,28.650 303.333 C 28.705 303.379,28.892 303.679,29.065 304.000 C 29.238 304.321,29.619 304.958,29.911 305.417 C 30.203 305.875,30.699 306.660,31.013 307.160 C 31.327 307.661,32.489 309.423,33.596 311.077 C 36.513 315.434,36.723 315.741,36.829 315.833 C 36.913 315.906,38.773 318.452,39.750 319.832 C 40.228 320.507,42.044 322.848,43.373 324.500 C 43.999 325.279,44.715 326.173,44.964 326.486 C 45.767 327.495,50.367 332.905,50.731 333.268 C 50.925 333.461,51.718 334.323,52.494 335.184 C 54.304 337.192,62.962 345.854,64.894 347.590 C 65.707 348.319,66.532 349.074,66.728 349.265 C 67.254 349.782,71.741 353.610,73.057 354.668 C 73.685 355.171,74.513 355.846,74.899 356.167 C 76.377 357.398,80.331 360.414,82.833 362.220 C 83.429 362.649,83.992 363.061,84.083 363.133 C 84.175 363.206,84.962 363.750,85.833 364.341 C 86.704 364.933,87.454 365.459,87.500 365.512 C 87.546 365.564,88.333 366.088,89.250 366.676 C 90.167 367.264,90.992 367.804,91.083 367.875 C 91.175 367.947,91.925 368.430,92.750 368.948 C 93.575 369.465,94.625 370.125,95.083 370.413 C 96.317 371.189,97.433 371.859,98.833 372.666 C 99.521 373.062,100.271 373.505,100.500 373.649 C 100.998 373.962,100.816 373.861,104.667 375.951 C 108.172 377.853,113.539 380.560,116.250 381.793 C 119.340 383.198,119.581 383.304,120.513 383.672 C 121.010 383.868,121.491 384.086,121.583 384.158 C 121.675 384.230,122.191 384.452,122.731 384.651 C 123.270 384.849,124.020 385.150,124.397 385.319 C 132.905 389.130,148.953 393.938,160.917 396.261 C 162.108 396.492,163.833 396.827,164.750 397.004 C 165.667 397.182,167.954 397.556,169.833 397.836 C 174.864 398.586,177.761 398.907,186.583 399.688 C 191.788 400.149,210.661 400.023,215.750 399.493 C 216.667 399.398,219.292 399.137,221.583 398.913 C 227.829 398.305,236.002 397.010,242.583 395.586 C 247.835 394.451,255.704 392.368,259.917 390.999 C 264.737 389.433,266.114 388.973,266.417 388.828 C 266.600 388.740,267.200 388.524,267.750 388.347 C 268.676 388.050,270.669 387.298,274.167 385.925 C 277.397 384.657,278.249 384.306,278.412 384.179 C 278.506 384.105,279.029 383.880,279.574 383.679 C 280.119 383.478,280.757 383.208,280.991 383.078 C 281.225 382.949,282.879 382.172,284.667 381.352 C 288.527 379.581,294.347 376.631,296.667 375.270 C 297.079 375.028,297.904 374.566,298.500 374.244 C 299.888 373.495,300.932 372.895,301.667 372.425 C 301.987 372.220,302.813 371.726,303.500 371.327 C 304.188 370.928,305.050 370.402,305.417 370.158 C 305.783 369.915,307.133 369.049,308.417 368.235 C 310.459 366.940,313.097 365.162,315.250 363.630 C 315.617 363.369,316.104 363.028,316.333 362.872 C 316.717 362.610,320.368 359.929,320.750 359.628 C 320.842 359.556,321.779 358.827,322.833 358.007 C 325.434 355.985,325.296 356.096,327.833 353.981 C 338.009 345.498,350.223 333.076,356.167 325.165 C 356.396 324.860,356.808 324.338,357.083 324.005 C 357.358 323.671,358.033 322.803,358.583 322.074 C 359.133 321.346,359.626 320.712,359.678 320.667 C 359.729 320.621,360.399 319.721,361.165 318.667 C 361.931 317.612,362.777 316.450,363.044 316.083 C 363.312 315.717,364.121 314.554,364.841 313.500 C 365.561 312.446,366.289 311.396,366.459 311.167 C 366.628 310.938,367.431 309.700,368.241 308.417 C 369.052 307.133,369.915 305.783,370.158 305.417 C 370.402 305.050,370.928 304.188,371.327 303.500 C 371.726 302.813,372.220 301.987,372.425 301.667 C 372.888 300.942,373.483 299.907,374.247 298.500 C 374.570 297.904,375.068 297.004,375.355 296.500 C 375.641 295.996,376.244 294.890,376.695 294.042 L 377.514 292.500 200.025 292.500 L 22.536 292.500 23.797 294.875 " stroke="none" fill="#fcd414" fill-rule="evenodd"></path>
        <path id="path2" d="M172.711 110.453 C 172.964 110.491,173.339 110.490,173.544 110.451 C 173.749 110.411,173.542 110.380,173.083 110.381 C 172.625 110.382,172.457 110.415,172.711 110.453 M187.711 110.453 C 187.964 110.491,188.339 110.490,188.544 110.451 C 188.749 110.411,188.542 110.380,188.083 110.381 C 187.625 110.382,187.457 110.415,187.711 110.453 M165.125 110.618 C 165.331 110.657,165.669 110.657,165.875 110.618 C 166.081 110.578,165.912 110.545,165.500 110.545 C 165.087 110.545,164.919 110.578,165.125 110.618 M195.544 110.620 C 195.797 110.658,196.172 110.657,196.377 110.617 C 196.582 110.578,196.375 110.546,195.917 110.548 C 195.458 110.549,195.291 110.581,195.544 110.620 M156.625 110.951 C 156.831 110.991,157.169 110.991,157.375 110.951 C 157.581 110.911,157.412 110.879,157.000 110.879 C 156.587 110.879,156.419 110.911,156.625 110.951 M204.377 110.953 C 204.631 110.991,205.006 110.990,205.211 110.951 C 205.416 110.911,205.208 110.880,204.750 110.881 C 204.292 110.882,204.124 110.915,204.377 110.953 M167.542 120.453 C 167.794 120.491,168.206 120.491,168.458 120.453 C 168.710 120.415,168.504 120.383,168.000 120.383 C 167.496 120.383,167.290 120.415,167.542 120.453 M192.295 120.454 C 192.594 120.491,193.044 120.490,193.295 120.452 C 193.545 120.414,193.300 120.384,192.750 120.385 C 192.200 120.386,191.995 120.417,192.295 120.454 M162.458 120.618 C 162.665 120.657,163.002 120.657,163.208 120.618 C 163.415 120.578,163.246 120.545,162.833 120.545 C 162.421 120.545,162.252 120.578,162.458 120.618 M197.792 120.618 C 197.998 120.657,198.335 120.657,198.542 120.618 C 198.748 120.578,198.579 120.545,198.167 120.545 C 197.754 120.545,197.585 120.578,197.792 120.618 M158.542 120.782 C 158.702 120.823,158.965 120.823,159.125 120.782 C 159.285 120.740,159.154 120.705,158.833 120.705 C 158.512 120.705,158.381 120.740,158.542 120.782 M202.042 120.782 C 202.202 120.823,202.465 120.823,202.625 120.782 C 202.785 120.740,202.654 120.705,202.333 120.705 C 202.012 120.705,201.881 120.740,202.042 120.782 M98.625 165.291 C 100.573 165.318,103.760 165.318,105.708 165.291 C 107.656 165.265,106.063 165.243,102.167 165.243 C 98.271 165.243,96.677 165.265,98.625 165.291 M78.377 165.453 C 78.631 165.491,79.006 165.490,79.211 165.451 C 79.416 165.411,79.208 165.380,78.750 165.381 C 78.292 165.382,78.124 165.415,78.377 165.453 M125.544 165.453 C 125.797 165.491,126.172 165.490,126.377 165.451 C 126.582 165.411,126.375 165.380,125.917 165.381 C 125.458 165.382,125.291 165.415,125.544 165.453 M69.960 165.618 C 70.168 165.658,70.468 165.656,70.627 165.615 C 70.786 165.573,70.617 165.540,70.250 165.542 C 69.883 165.544,69.753 165.578,69.960 165.618 M134.460 165.618 C 134.668 165.658,134.968 165.656,135.127 165.615 C 135.286 165.573,135.117 165.540,134.750 165.542 C 134.383 165.544,134.253 165.578,134.460 165.618 M142.042 165.782 C 142.202 165.823,142.465 165.823,142.625 165.782 C 142.785 165.740,142.654 165.705,142.333 165.705 C 142.012 165.705,141.881 165.740,142.042 165.782 M56.788 165.954 C 57.084 165.990,57.609 165.991,57.955 165.955 C 58.300 165.919,58.058 165.889,57.417 165.888 C 56.775 165.887,56.492 165.917,56.788 165.954 M147.542 165.955 C 147.885 165.991,148.448 165.991,148.792 165.955 C 149.135 165.919,148.854 165.889,148.167 165.889 C 147.479 165.889,147.198 165.919,147.542 165.955 M52.128 166.121 C 52.428 166.158,52.878 166.157,53.128 166.119 C 53.378 166.081,53.133 166.051,52.583 166.052 C 52.033 166.053,51.828 166.084,52.128 166.121 M152.792 166.121 C 153.090 166.158,153.577 166.158,153.875 166.121 C 154.173 166.084,153.929 166.053,153.333 166.053 C 152.737 166.053,152.494 166.084,152.792 166.121 M47.627 166.285 C 47.834 166.324,48.134 166.323,48.294 166.281 C 48.453 166.239,48.283 166.207,47.917 166.209 C 47.550 166.211,47.420 166.245,47.627 166.285 M157.958 166.284 C 158.165 166.324,158.502 166.324,158.708 166.284 C 158.915 166.245,158.746 166.212,158.333 166.212 C 157.921 166.212,157.752 166.245,157.958 166.284 M28.627 167.118 C 28.834 167.158,29.134 167.156,29.294 167.115 C 29.453 167.073,29.283 167.040,28.917 167.042 C 28.550 167.044,28.420 167.078,28.627 167.118 M178.458 167.118 C 178.665 167.157,179.002 167.157,179.208 167.118 C 179.415 167.078,179.246 167.045,178.833 167.045 C 178.421 167.045,178.252 167.078,178.458 167.118 M25.627 167.285 C 25.834 167.324,26.134 167.323,26.294 167.281 C 26.453 167.239,26.283 167.207,25.917 167.209 C 25.550 167.211,25.420 167.245,25.627 167.285 M181.792 167.284 C 181.998 167.324,182.335 167.324,182.542 167.284 C 182.748 167.245,182.579 167.212,182.167 167.212 C 181.754 167.212,181.585 167.245,181.792 167.284 M200.708 168.282 C 200.869 168.323,201.131 168.323,201.292 168.282 C 201.452 168.240,201.321 168.205,201.000 168.205 C 200.679 168.205,200.548 168.240,200.708 168.282 M203.375 168.448 C 203.535 168.490,203.798 168.490,203.958 168.448 C 204.119 168.406,203.987 168.372,203.667 168.372 C 203.346 168.372,203.215 168.406,203.375 168.448 M83.542 175.290 C 84.069 175.323,84.931 175.323,85.458 175.290 C 85.985 175.257,85.554 175.230,84.500 175.230 C 83.446 175.230,83.015 175.257,83.542 175.290 M118.965 175.290 C 119.541 175.323,120.441 175.323,120.965 175.290 C 121.488 175.257,121.017 175.230,119.917 175.230 C 118.817 175.231,118.388 175.258,118.965 175.290 M72.881 175.457 C 73.412 175.490,74.237 175.490,74.714 175.456 C 75.192 175.422,74.758 175.395,73.750 175.396 C 72.742 175.396,72.351 175.424,72.881 175.457 M130.214 175.457 C 130.745 175.490,131.570 175.490,132.048 175.456 C 132.526 175.422,132.092 175.395,131.083 175.396 C 130.075 175.396,129.684 175.424,130.214 175.457 M65.792 175.622 C 66.181 175.657,66.819 175.657,67.208 175.622 C 67.598 175.587,67.279 175.558,66.500 175.558 C 65.721 175.558,65.402 175.587,65.792 175.622 M137.880 175.623 C 138.318 175.657,138.993 175.657,139.380 175.622 C 139.767 175.587,139.408 175.559,138.583 175.559 C 137.758 175.560,137.442 175.588,137.880 175.623 M144.542 175.782 C 144.702 175.823,144.965 175.823,145.125 175.782 C 145.285 175.740,145.154 175.705,144.833 175.705 C 144.512 175.705,144.381 175.740,144.542 175.782 M41.042 176.448 C 41.202 176.490,41.465 176.490,41.625 176.448 C 41.785 176.406,41.654 176.372,41.333 176.372 C 41.012 176.372,40.881 176.406,41.042 176.448 M165.127 176.451 C 165.334 176.491,165.634 176.490,165.794 176.448 C 165.953 176.406,165.783 176.374,165.417 176.375 C 165.050 176.377,164.920 176.411,165.127 176.451 M37.125 176.618 C 37.331 176.657,37.669 176.657,37.875 176.618 C 38.081 176.578,37.912 176.545,37.500 176.545 C 37.087 176.545,36.919 176.578,37.125 176.618 M169.211 176.620 C 169.464 176.658,169.839 176.657,170.044 176.617 C 170.249 176.578,170.042 176.546,169.583 176.548 C 169.125 176.549,168.957 176.581,169.211 176.620 M33.542 176.782 C 33.702 176.823,33.965 176.823,34.125 176.782 C 34.285 176.740,34.154 176.705,33.833 176.705 C 33.512 176.705,33.381 176.740,33.542 176.782 M173.208 176.782 C 173.369 176.823,173.631 176.823,173.792 176.782 C 173.952 176.740,173.821 176.705,173.500 176.705 C 173.179 176.705,173.048 176.740,173.208 176.782 M15.375 177.782 C 15.535 177.823,15.798 177.823,15.958 177.782 C 16.119 177.740,15.987 177.705,15.667 177.705 C 15.346 177.705,15.215 177.740,15.375 177.782 M193.375 177.782 C 193.535 177.823,193.798 177.823,193.958 177.782 C 194.119 177.740,193.987 177.705,193.667 177.705 C 193.346 177.705,193.215 177.740,193.375 177.782 M399.879 192.333 C 399.879 192.746,399.911 192.915,399.951 192.708 C 399.991 192.502,399.991 192.165,399.951 191.958 C 399.911 191.752,399.879 191.921,399.879 192.333 M11.303 246.625 C 13.716 246.651,17.616 246.651,19.970 246.625 C 22.324 246.599,20.350 246.577,15.583 246.578 C 10.817 246.578,8.891 246.599,11.303 246.625 M88.138 246.792 C 94.401 246.816,104.601 246.816,110.805 246.792 C 117.008 246.767,111.883 246.748,99.417 246.748 C 86.950 246.748,81.875 246.767,88.138 246.792 M321.279 246.792 C 327.619 246.816,338.044 246.816,344.445 246.792 C 350.846 246.767,345.658 246.748,332.917 246.748 C 320.175 246.748,314.938 246.767,321.279 246.792 M189.792 282.458 C 212.823 282.482,250.510 282.482,273.542 282.458 C 296.573 282.435,277.729 282.416,231.667 282.416 C 185.604 282.416,166.760 282.435,189.792 282.458 M20.250 288.000 C 20.392 288.275,20.546 288.500,20.592 288.500 C 20.638 288.500,20.559 288.275,20.417 288.000 C 20.274 287.725,20.121 287.500,20.075 287.500 C 20.029 287.500,20.108 287.725,20.250 288.000 " stroke="none" fill="#fcec91" fill-rule="evenodd"></path>
        <path id="path3" d="M171.292 120.451 C 171.498 120.491,171.835 120.491,172.042 120.451 C 172.248 120.411,172.079 120.379,171.667 120.379 C 171.254 120.379,171.085 120.411,171.292 120.451 M188.711 120.453 C 188.964 120.491,189.339 120.490,189.544 120.451 C 189.749 120.411,189.542 120.380,189.083 120.381 C 188.625 120.382,188.457 120.415,188.711 120.453 M164.458 120.618 C 164.665 120.657,165.002 120.657,165.208 120.618 C 165.415 120.578,165.246 120.545,164.833 120.545 C 164.421 120.545,164.252 120.578,164.458 120.618 M195.792 120.618 C 195.998 120.657,196.335 120.657,196.542 120.618 C 196.748 120.578,196.579 120.545,196.167 120.545 C 195.754 120.545,195.585 120.578,195.792 120.618 M87.633 165.291 C 88.394 165.322,89.594 165.322,90.300 165.290 C 91.006 165.259,90.383 165.234,88.917 165.234 C 87.450 165.234,86.872 165.260,87.633 165.291 M114.300 165.291 C 115.060 165.322,116.260 165.322,116.966 165.290 C 117.672 165.259,117.050 165.234,115.583 165.234 C 114.117 165.234,113.539 165.260,114.300 165.291 M76.958 165.451 C 77.165 165.491,77.502 165.491,77.708 165.451 C 77.915 165.411,77.746 165.379,77.333 165.379 C 76.921 165.379,76.752 165.411,76.958 165.451 M126.958 165.451 C 127.165 165.491,127.502 165.491,127.708 165.451 C 127.915 165.411,127.746 165.379,127.333 165.379 C 126.921 165.379,126.752 165.411,126.958 165.451 M136.375 165.615 C 136.535 165.657,136.798 165.657,136.958 165.615 C 137.119 165.573,136.987 165.539,136.667 165.539 C 136.346 165.539,136.215 165.573,136.375 165.615 M45.794 166.285 C 46.001 166.324,46.301 166.323,46.460 166.281 C 46.620 166.239,46.450 166.207,46.083 166.209 C 45.717 166.211,45.586 166.245,45.794 166.285 M159.960 166.285 C 160.168 166.324,160.468 166.323,160.627 166.281 C 160.786 166.239,160.617 166.207,160.250 166.209 C 159.883 166.211,159.753 166.245,159.960 166.285 M41.960 166.451 C 42.168 166.491,42.468 166.490,42.627 166.448 C 42.786 166.406,42.617 166.374,42.250 166.375 C 41.883 166.377,41.753 166.411,41.960 166.451 M164.127 166.451 C 164.334 166.491,164.634 166.490,164.794 166.448 C 164.953 166.406,164.783 166.374,164.417 166.375 C 164.050 166.377,163.920 166.411,164.127 166.451 M90.292 175.291 C 91.231 175.321,92.769 175.321,93.708 175.291 C 94.648 175.261,93.879 175.237,92.000 175.237 C 90.121 175.237,89.352 175.261,90.292 175.291 M110.625 175.291 C 111.565 175.321,113.102 175.321,114.042 175.291 C 114.981 175.261,114.212 175.237,112.333 175.237 C 110.454 175.237,109.685 175.261,110.625 175.291 M77.044 175.453 C 77.297 175.491,77.672 175.490,77.877 175.451 C 78.082 175.411,77.875 175.380,77.417 175.381 C 76.958 175.382,76.791 175.415,77.044 175.453 M126.877 175.453 C 127.131 175.491,127.506 175.490,127.711 175.451 C 127.916 175.411,127.708 175.380,127.250 175.381 C 126.792 175.382,126.624 175.415,126.877 175.453 M69.042 175.615 C 69.202 175.657,69.465 175.657,69.625 175.615 C 69.785 175.573,69.654 175.539,69.333 175.539 C 69.012 175.539,68.881 175.573,69.042 175.615 M135.375 175.615 C 135.535 175.657,135.798 175.657,135.958 175.615 C 136.119 175.573,135.987 175.539,135.667 175.539 C 135.346 175.539,135.215 175.573,135.375 175.615 M46.627 176.285 C 46.834 176.324,47.134 176.323,47.294 176.281 C 47.453 176.239,47.283 176.207,46.917 176.209 C 46.550 176.211,46.420 176.245,46.627 176.285 M159.127 176.285 C 159.334 176.324,159.634 176.323,159.794 176.281 C 159.953 176.239,159.783 176.207,159.417 176.209 C 159.050 176.211,158.920 176.245,159.127 176.285 M42.627 176.451 C 42.834 176.491,43.134 176.490,43.294 176.448 C 43.453 176.406,43.283 176.374,42.917 176.375 C 42.550 176.377,42.420 176.411,42.627 176.451 M163.292 176.451 C 163.498 176.491,163.835 176.491,164.042 176.451 C 164.248 176.411,164.079 176.379,163.667 176.379 C 163.254 176.379,163.085 176.411,163.292 176.451 M189.042 177.615 C 189.202 177.657,189.465 177.657,189.625 177.615 C 189.785 177.573,189.654 177.539,189.333 177.539 C 189.012 177.539,188.881 177.573,189.042 177.615 M101.625 236.625 C 155.731 236.648,244.269 236.648,298.375 236.625 C 352.481 236.602,308.212 236.583,200.000 236.583 C 91.787 236.583,47.519 236.602,101.625 236.625 M56.198 246.791 C 57.727 246.819,60.277 246.819,61.864 246.791 C 63.451 246.764,62.200 246.742,59.083 246.741 C 55.967 246.741,54.668 246.764,56.198 246.791 M371.281 246.791 C 372.856 246.819,375.481 246.819,377.114 246.791 C 378.747 246.764,377.458 246.742,374.250 246.742 C 371.042 246.742,369.706 246.764,371.281 246.791 M195.138 246.958 C 206.352 246.982,224.652 246.982,235.805 246.958 C 246.958 246.935,237.783 246.915,215.417 246.915 C 193.050 246.915,183.925 246.935,195.138 246.958 M118.362 282.458 C 123.740 282.483,132.590 282.483,138.029 282.458 C 143.467 282.434,139.067 282.414,128.250 282.414 C 117.433 282.414,112.984 282.434,118.362 282.458 M325.195 282.458 C 330.574 282.483,339.424 282.483,344.862 282.458 C 350.300 282.434,345.900 282.414,335.083 282.414 C 324.267 282.414,319.817 282.434,325.195 282.458 " stroke="none" fill="#fcdc4a" fill-rule="evenodd"></path>
        <path id="path4" d="M171.292 110.451 C 171.498 110.491,171.835 110.491,172.042 110.451 C 172.248 110.411,172.079 110.379,171.667 110.379 C 171.254 110.379,171.085 110.411,171.292 110.451 M189.125 110.451 C 189.331 110.491,189.669 110.491,189.875 110.451 C 190.081 110.411,189.912 110.379,189.500 110.379 C 189.088 110.379,188.919 110.411,189.125 110.451 M169.288 120.454 C 169.584 120.490,170.109 120.491,170.455 120.455 C 170.800 120.419,170.558 120.389,169.917 120.388 C 169.275 120.387,168.992 120.417,169.288 120.454 M190.292 120.454 C 190.590 120.491,191.077 120.491,191.375 120.454 C 191.673 120.417,191.429 120.387,190.833 120.387 C 190.237 120.387,189.994 120.417,190.292 120.454 M92.375 165.290 C 92.902 165.323,93.765 165.323,94.292 165.290 C 94.819 165.257,94.388 165.230,93.333 165.230 C 92.279 165.230,91.848 165.257,92.375 165.290 M110.132 165.290 C 110.708 165.323,111.608 165.323,112.132 165.290 C 112.655 165.257,112.183 165.230,111.083 165.230 C 109.983 165.231,109.555 165.258,110.132 165.290 M68.875 165.615 C 69.035 165.657,69.298 165.657,69.458 165.615 C 69.619 165.573,69.487 165.539,69.167 165.539 C 68.846 165.539,68.715 165.573,68.875 165.615 M86.875 175.288 C 87.219 175.324,87.781 175.324,88.125 175.288 C 88.469 175.252,88.188 175.223,87.500 175.223 C 86.813 175.223,86.531 175.252,86.875 175.288 M116.208 175.288 C 116.552 175.324,117.115 175.324,117.458 175.288 C 117.802 175.252,117.521 175.223,116.833 175.223 C 116.146 175.223,115.865 175.252,116.208 175.288 M75.794 175.451 C 76.001 175.491,76.301 175.490,76.460 175.448 C 76.620 175.406,76.450 175.374,76.083 175.375 C 75.717 175.377,75.586 175.411,75.794 175.451 M128.292 175.451 C 128.498 175.491,128.835 175.491,129.042 175.451 C 129.248 175.411,129.079 175.379,128.667 175.379 C 128.254 175.379,128.085 175.411,128.292 175.451 M68.042 175.615 C 68.202 175.657,68.465 175.657,68.625 175.615 C 68.785 175.573,68.654 175.539,68.333 175.539 C 68.012 175.539,67.881 175.573,68.042 175.615 M136.375 175.615 C 136.535 175.657,136.798 175.657,136.958 175.615 C 137.119 175.573,136.987 175.539,136.667 175.539 C 136.346 175.539,136.215 175.573,136.375 175.615 M172.208 176.782 C 172.369 176.823,172.631 176.823,172.792 176.782 C 172.952 176.740,172.821 176.705,172.500 176.705 C 172.179 176.705,172.048 176.740,172.208 176.782 M5.877 246.620 C 6.131 246.658,6.506 246.657,6.711 246.617 C 6.916 246.578,6.708 246.546,6.250 246.548 C 5.792 246.549,5.624 246.581,5.877 246.620 M67.719 246.791 C 69.444 246.819,72.219 246.819,73.886 246.791 C 75.553 246.764,74.142 246.742,70.750 246.742 C 67.358 246.742,65.994 246.764,67.719 246.791 M359.136 246.791 C 360.907 246.819,363.757 246.818,365.469 246.791 C 367.182 246.764,365.733 246.742,362.250 246.742 C 358.767 246.742,357.365 246.764,359.136 246.791 " stroke="none" fill="#fce46d" fill-rule="evenodd"></path></g></svg>